<svg viewBox="0 0 28.7333 27.3333" fill="none" xmlns="http://www.w3.org/2000/svg" x="0" y="0"><path id="Icon" d="M-0.0004,27.3337l6.667,-18.667l12,12zM16.7336,14.7337l-1.4,-1.4l7.466,-7.467c0.711,-0.711 1.567,-1.067 2.567,-1.067c1,0 1.856,0.356 2.567,1.067l0.8,0.8l-1.4,1.4l-0.8,-0.8c-0.311,-0.311 -0.7,-0.467 -1.167,-0.467c-0.467,0 -0.856,0.156 -1.167,0.467zM11.3996,9.3997l-1.4,-1.4l0.8,-0.8c0.311,-0.311 0.467,-0.689 0.467,-1.133c0,-0.444 -0.156,-0.822 -0.467,-1.133l-0.866,-0.867l1.4,-1.4l0.866,0.867c0.711,0.711 1.067,1.555 1.067,2.533c0,0.978 -0.356,1.822 -1.067,2.533zM14.0666,12.0667l-1.4,-1.4l4.8,-4.8c0.311,-0.311 0.467,-0.7 0.467,-1.167c0,-0.466 -0.156,-0.855 -0.467,-1.166l-2.133,-2.134l1.4,-1.4l2.133,2.134c0.711,0.711 1.067,1.566 1.067,2.566c0,1 -0.356,1.856 -1.067,2.567zM19.3996,17.3997l-1.4,-1.4l2.134,-2.133c0.711,-0.711 1.566,-1.067 2.566,-1.067c1,0 1.856,0.356 2.567,1.067l2.133,2.133l-1.4,1.4l-2.133,-2.133c-0.311,-0.311 -0.7,-0.467 -1.167,-0.467c-0.466,0 -0.855,0.156 -1.166,0.467z" fill="currentColor"/></svg>